<?xml version="1.0" standalone="no"?>
<!DOCTYPE svg PUBLIC "-//W3C//DTD SVG 20010904//EN"
 "http://www.w3.org/TR/2001/REC-SVG-20010904/DTD/svg10.dtd">
<svg version="1.0" xmlns="http://www.w3.org/2000/svg"
 width="3240.000000pt" height="762.000000pt" viewBox="0 0 3240.000000 762.000000"
 preserveAspectRatio="xMidYMid meet">

<g transform="translate(0.000000,762.000000) scale(0.100000,-0.100000)"
fill="#000000" stroke="none">
<path d="M5102 6987 l-112 -112 2 -1120 3 -1120 233 0 232 0 0 1120 0 1119
-112 113 c-62 62 -117 113 -123 113 -5 0 -61 -51 -123 -113z"/>
<path d="M4182 6067 l-232 -232 0 -2010 0 -2010 232 -232 c128 -128 235 -233
238 -233 3 0 4 498 2 1106 -1 812 1 1110 9 1120 16 19 1568 21 1587 2 9 -9 12
-272 12 -1122 l0 -1111 235 235 235 235 0 2010 0 2010 -235 235 -235 235 0
-1111 c0 -850 -3 -1113 -12 -1122 -19 -19 -1571 -17 -1587 2 -8 10 -10 308 -9
1120 2 608 1 1106 -2 1106 -3 0 -110 -105 -238 -233z"/>
<path d="M17015 5429 c-16 -5 -75 -12 -130 -15 -55 -3 -111 -10 -125 -15 -14
-5 -68 -13 -120 -18 -52 -5 -115 -14 -140 -20 -25 -5 -64 -10 -87 -11 -38 0
-43 -3 -43 -24 0 -13 6 -29 14 -35 21 -18 349 -181 363 -181 7 0 17 -9 23 -19
13 -25 13 -173 -1 -271 -15 -111 -14 -2411 2 -2541 13 -119 4 -157 -43 -166
-15 -3 -31 -9 -33 -13 -3 -5 -26 -18 -53 -30 -26 -12 -54 -25 -62 -30 -8 -5
-48 -26 -87 -46 -40 -21 -73 -41 -73 -45 0 -4 -3 -14 -6 -23 -6 -14 51 -16
600 -16 623 0 622 0 598 37 -9 14 -292 158 -328 167 -45 12 -48 39 -35 244 19
279 11 2835 -9 2980 l-14 102 -90 -1 c-50 0 -104 -5 -121 -10z"/>
<path d="M21314 5429 c-17 -5 -82 -13 -145 -19 -63 -5 -136 -14 -164 -19 -27
-5 -71 -10 -97 -10 -26 -1 -73 -8 -105 -16 -31 -8 -74 -15 -94 -15 -43 0 -58
-23 -34 -50 9 -10 99 -59 201 -109 109 -55 188 -100 195 -112 10 -20 9 -80
-20 -774 -6 -149 -6 -150 -30 -153 -13 -2 -40 3 -60 11 -85 34 -155 47 -291
56 -204 12 -436 -12 -543 -57 -16 -7 -33 -12 -38 -12 -5 0 -17 -4 -27 -10 -9
-5 -42 -21 -72 -35 -54 -26 -90 -45 -100 -55 -3 -3 -24 -18 -46 -33 -54 -36
-183 -170 -220 -227 -16 -25 -32 -47 -35 -50 -3 -3 -23 -41 -43 -85 -21 -44
-41 -87 -45 -95 -5 -9 -12 -31 -16 -50 -4 -19 -11 -39 -15 -45 -4 -5 -11 -30
-15 -55 -4 -24 -11 -51 -15 -60 -35 -67 -46 -505 -17 -670 19 -112 39 -195 50
-206 4 -4 7 -14 7 -21 0 -31 78 -187 123 -248 63 -84 170 -182 227 -208 8 -4
35 -18 59 -32 24 -14 49 -25 55 -25 6 0 23 -6 37 -13 14 -8 45 -17 69 -21 24
-4 50 -12 57 -18 8 -6 81 -11 195 -11 154 -1 188 2 215 16 18 9 42 17 55 17
13 0 32 7 42 15 11 8 28 15 38 15 10 0 18 4 18 9 0 5 10 13 22 17 44 14 258
158 293 198 15 16 65 37 75 31 5 -3 12 -22 16 -43 19 -106 95 -211 184 -255
39 -19 60 -22 160 -21 87 0 123 5 147 17 18 9 41 17 52 17 11 0 32 6 48 14 15
8 46 22 68 32 41 17 44 19 107 53 73 40 119 72 125 88 10 27 -26 43 -96 44
-36 0 -91 5 -121 10 -30 5 -78 13 -107 17 -29 5 -62 17 -73 27 -44 40 -49 62
-39 185 4 63 16 399 24 745 21 810 9 2068 -21 2273 l-6 42 -92 -1 c-50 0 -105
-5 -122 -10z m-592 -1346 c6 -7 22 -13 34 -13 50 0 183 -86 259 -168 l34 -37
1 -802 c0 -716 -2 -803 -16 -817 -8 -9 -23 -16 -32 -16 -9 0 -26 -7 -36 -15
-11 -8 -30 -15 -42 -15 -12 0 -35 -7 -50 -15 -16 -8 -42 -15 -59 -15 -16 0
-48 -7 -70 -15 -29 -10 -89 -14 -213 -15 -180 0 -180 0 -282 48 -116 55 -209
175 -254 327 -6 22 -15 46 -19 52 -4 7 -13 48 -18 90 -6 43 -14 107 -19 143
-12 85 -11 395 1 490 5 41 13 116 18 167 6 51 14 100 19 110 5 10 12 41 15 70
3 28 10 60 15 70 5 10 20 52 33 93 13 41 27 77 30 80 4 3 10 16 14 30 8 27 67
87 100 101 11 5 27 13 35 18 48 27 80 41 97 41 10 0 36 7 58 15 51 19 327 17
347 -2z"/>
<path d="M18360 5334 c-19 -7 -45 -13 -56 -13 -12 -1 -27 -8 -34 -16 -7 -8
-18 -15 -25 -15 -20 0 -92 -85 -117 -137 -31 -65 -33 -236 -4 -298 26 -53 99
-130 145 -150 20 -9 44 -20 53 -25 29 -16 220 -12 242 5 11 8 28 15 37 15 27
0 115 91 141 146 20 42 23 64 23 159 0 94 -4 117 -23 156 -43 88 -113 143
-219 172 -72 20 -114 20 -163 1z"/>
<path d="M7070 3825 c0 -780 4 -1415 8 -1409 25 28 142 212 142 222 0 7 4 12
9 12 5 0 14 12 20 28 6 15 15 34 20 42 5 8 12 22 15 30 3 8 10 22 15 30 10 16
59 121 85 182 9 20 16 43 16 51 0 9 5 19 10 22 6 3 10 16 10 28 0 12 6 34 14
48 7 14 16 43 20 64 4 20 11 45 16 54 11 22 29 110 40 197 5 40 14 84 20 99 6
15 10 139 10 300 0 161 -4 285 -10 300 -6 15 -15 59 -20 99 -11 87 -29 175
-40 197 -5 9 -12 34 -16 54 -4 21 -13 50 -20 64 -8 14 -14 36 -14 48 0 12 -4
25 -10 28 -5 3 -10 13 -10 22 0 8 -7 31 -16 51 -26 61 -75 166 -85 182 -5 8
-12 22 -15 30 -3 8 -10 22 -15 30 -5 8 -14 27 -20 43 -6 15 -15 27 -20 27 -5
0 -9 5 -9 12 0 10 -117 194 -142 223 -4 5 -8 -630 -8 -1410z"/>
<path d="M3352 5208 c-7 -7 -12 -16 -12 -21 0 -5 -13 -26 -29 -46 -15 -20 -36
-52 -46 -71 -10 -19 -21 -37 -25 -40 -4 -3 -13 -17 -21 -32 -30 -57 -123 -245
-137 -278 -8 -19 -19 -43 -23 -52 -5 -10 -9 -23 -9 -29 0 -6 -6 -25 -13 -42
-23 -54 -46 -130 -53 -175 -4 -23 -11 -45 -15 -48 -5 -3 -9 -19 -9 -36 0 -18
-6 -57 -14 -87 -53 -208 -53 -644 0 -852 8 -30 14 -69 14 -87 0 -17 4 -33 9
-36 4 -3 11 -25 15 -48 7 -45 30 -121 53 -175 7 -17 13 -36 13 -42 0 -6 4 -19
9 -29 4 -9 15 -33 23 -52 14 -33 107 -221 137 -278 8 -15 17 -29 21 -32 4 -3
15 -21 25 -40 10 -19 29 -51 44 -70 14 -19 31 -44 37 -54 6 -11 15 -21 20 -23
5 -2 9 538 9 1392 0 767 -2 1395 -5 1395 -4 0 -11 -5 -18 -12z"/>
<path d="M9887 5143 c-4 -3 -7 -14 -7 -24 0 -16 25 -31 125 -73 44 -19 95 -40
138 -59 20 -9 54 -24 75 -33 73 -32 102 -47 114 -61 8 -10 7 -100 -2 -346 -20
-514 -24 -1266 -10 -1642 7 -181 13 -424 14 -539 l1 -210 -50 -25 c-47 -23
-76 -36 -152 -68 -36 -15 -86 -36 -135 -58 -18 -7 -52 -22 -75 -32 -32 -13
-43 -24 -43 -40 l0 -23 721 0 720 0 -3 21 c-3 21 -39 42 -198 116 -36 16 -87
40 -115 53 -27 13 -62 32 -77 42 l-28 19 0 658 c0 498 3 660 12 669 9 9 186
12 734 12 397 0 729 -3 738 -6 14 -6 16 -74 16 -673 l0 -666 -42 -21 c-24 -12
-74 -36 -113 -54 -38 -18 -77 -37 -85 -41 -8 -5 -22 -12 -30 -15 -104 -43
-149 -71 -150 -91 l0 -23 725 0 c399 0 725 4 725 8 0 17 -27 40 -65 57 -22 9
-53 22 -70 29 -65 28 -101 44 -135 58 -143 60 -199 90 -206 110 -3 10 0 78 6
151 16 188 16 2254 0 2432 l-12 129 28 23 c16 13 38 26 49 29 11 3 35 12 52
20 18 8 47 21 65 28 48 20 98 42 138 59 19 9 54 24 77 34 43 18 63 47 46 64
-5 5 -302 8 -714 7 l-704 -3 -3 -22 c-2 -16 4 -26 20 -33 13 -5 30 -14 38 -19
8 -4 44 -22 80 -38 36 -17 113 -54 173 -83 l107 -53 0 -633 c0 -616 -1 -634
-19 -644 -13 -7 -262 -10 -739 -10 -595 0 -722 2 -731 14 -8 9 -10 187 -9 646
l3 632 40 21 c22 11 47 24 55 29 8 4 22 11 30 14 25 10 144 66 160 75 8 5 22
12 30 15 73 29 106 55 96 79 -5 13 -91 15 -714 15 -390 0 -712 -3 -715 -7z"/>
<path d="M28240 5080 c-112 -10 -232 -41 -302 -76 -14 -8 -33 -14 -41 -14 -8
0 -20 -7 -27 -15 -7 -8 -19 -15 -27 -15 -7 0 -19 -5 -26 -11 -7 -5 -40 -28
-74 -50 -72 -47 -198 -161 -218 -198 -7 -14 -23 -36 -34 -48 -35 -37 -91 -148
-91 -180 0 -28 34 -73 55 -73 5 0 41 33 80 73 82 82 117 113 160 142 85 56
208 115 242 115 10 0 36 7 58 15 57 20 293 20 342 0 19 -8 43 -15 52 -15 44
-1 150 -71 218 -143 53 -55 123 -182 123 -222 0 -12 5 -26 11 -32 29 -29 29
-487 0 -541 -6 -11 -11 -31 -11 -44 0 -20 -27 -103 -59 -181 -6 -16 -11 -34
-11 -40 0 -7 -7 -21 -15 -31 -8 -11 -15 -26 -15 -34 0 -7 -7 -20 -15 -28 -8
-9 -15 -24 -15 -35 0 -10 -4 -19 -9 -19 -5 0 -13 -10 -17 -22 -3 -12 -19 -39
-35 -61 -16 -22 -29 -44 -29 -49 0 -4 -7 -16 -15 -25 -9 -10 -45 -58 -79 -106
-125 -174 -415 -471 -766 -787 -263 -237 -306 -275 -336 -299 -14 -11 -23 -33
-27 -69 l-6 -52 1083 0 1083 0 11 37 c22 78 44 230 40 283 l-3 55 -829 1 -830
0 -9 22 c-11 23 5 52 28 52 8 0 15 3 17 8 2 4 37 30 78 58 118 80 174 118 186
129 6 6 22 17 34 25 36 24 194 143 200 150 3 3 37 31 75 62 93 73 193 165 350
323 149 148 206 211 243 269 15 23 29 43 32 46 4 3 17 23 30 45 13 22 26 42
29 45 17 15 111 222 111 243 0 9 4 18 9 21 5 3 12 26 15 51 4 24 11 47 17 50
5 4 9 22 9 41 0 19 7 66 16 104 30 134 -2 426 -62 557 -8 17 -14 36 -14 42 0
6 -4 11 -10 11 -5 0 -10 5 -10 11 0 23 -75 132 -126 183 -82 82 -230 173 -311
191 -18 3 -35 11 -38 16 -4 5 -19 9 -35 9 -16 0 -49 6 -72 14 -53 17 -272 26
-388 16z"/>
<path d="M14725 4247 c-77 -4 -151 -12 -165 -18 -14 -6 -45 -15 -70 -19 -58
-10 -110 -29 -217 -78 -46 -20 -167 -97 -208 -132 -91 -77 -225 -242 -225
-278 0 -7 -4 -12 -8 -12 -5 0 -16 -19 -26 -42 -10 -24 -25 -56 -32 -72 -8 -16
-14 -33 -14 -37 0 -4 -5 -20 -12 -36 -54 -129 -95 -506 -68 -632 6 -31 15 -87
20 -126 8 -71 25 -143 40 -180 5 -11 12 -31 15 -45 6 -25 49 -122 66 -150 5
-8 14 -26 20 -40 5 -13 13 -27 17 -30 4 -3 20 -24 35 -48 73 -113 248 -251
397 -314 19 -8 51 -21 70 -30 45 -19 110 -37 180 -48 30 -5 73 -14 95 -20 53
-14 457 -7 545 10 36 7 79 19 97 26 17 8 38 14 47 14 27 0 197 80 266 125 88
58 202 167 246 235 16 25 32 48 37 51 14 10 107 201 107 221 0 10 4 18 9 18 5
0 11 19 15 42 4 22 10 46 14 52 15 24 34 148 43 291 13 199 -8 460 -41 526 -5
9 -12 33 -15 53 -4 20 -11 39 -16 42 -5 3 -9 13 -9 22 0 15 -31 79 -81 172
-74 135 -242 286 -405 363 -32 16 -72 35 -87 43 -16 8 -35 14 -44 14 -8 0 -29
6 -46 14 -47 20 -130 36 -237 46 -157 14 -209 15 -355 7z m309 -132 c15 -8 37
-15 47 -15 10 0 21 -5 24 -10 4 -6 21 -16 39 -24 36 -15 149 -116 168 -150 11
-19 46 -89 109 -218 5 -9 12 -36 15 -60 4 -24 11 -51 16 -61 5 -10 13 -48 18
-85 5 -37 14 -92 19 -122 12 -71 13 -570 0 -635 -5 -27 -13 -85 -18 -127 -6
-43 -14 -92 -20 -110 -5 -18 -15 -55 -21 -83 -18 -81 -30 -125 -39 -143 -5 -9
-26 -54 -47 -99 -20 -45 -47 -86 -58 -92 -12 -6 -34 -20 -51 -31 -16 -11 -37
-22 -45 -26 -8 -3 -23 -10 -33 -15 -10 -5 -37 -14 -60 -19 -23 -5 -62 -14 -87
-20 -54 -14 -230 -7 -280 10 -148 53 -242 120 -300 216 -13 22 -27 41 -31 44
-4 3 -11 18 -14 33 -4 15 -11 27 -16 27 -5 0 -9 6 -9 13 -1 6 -9 30 -20 52
-11 22 -19 47 -20 56 0 9 -7 33 -15 52 -8 20 -15 50 -15 67 0 17 -5 40 -10 50
-42 79 -44 855 -2 937 5 10 12 44 15 76 3 32 10 64 15 70 5 7 12 31 16 55 3
24 10 51 15 60 5 9 19 44 32 77 13 33 36 83 53 112 25 44 40 57 101 87 39 20
80 36 91 36 11 0 24 4 30 9 16 16 45 19 204 20 120 1 162 -3 184 -14z"/>
<path d="M23119 4230 c-9 -5 -40 -13 -70 -19 -82 -14 -164 -44 -304 -113 -104
-51 -137 -69 -145 -79 -3 -3 -23 -16 -46 -30 -22 -13 -68 -44 -102 -69 -49
-36 -60 -49 -55 -65 8 -26 23 -36 48 -29 37 9 130 36 175 50 25 8 60 14 78 14
18 0 43 5 54 11 12 6 55 15 97 19 42 5 112 14 156 20 91 13 272 8 325 -10 70
-24 103 -45 134 -85 67 -84 82 -163 92 -489 7 -231 9 -226 -85 -226 -31 0 -82
-4 -114 -10 -32 -5 -122 -12 -200 -15 -78 -4 -156 -11 -173 -16 -17 -5 -69
-14 -115 -19 -144 -16 -255 -42 -326 -78 -59 -29 -177 -161 -212 -237 -47 -99
-48 -101 -60 -190 -29 -208 12 -412 102 -513 54 -60 91 -91 124 -107 18 -9 35
-20 38 -25 3 -6 15 -10 26 -10 11 0 30 -6 42 -12 12 -7 75 -20 141 -29 105
-14 129 -14 215 -1 53 8 110 21 128 28 17 8 36 14 41 14 6 0 25 8 44 17 18 9
44 22 58 29 39 19 93 48 104 57 6 4 54 39 105 78 72 54 99 69 110 62 9 -5 32
-40 52 -78 48 -92 86 -135 150 -170 52 -29 58 -30 179 -29 94 1 132 5 155 18
17 9 38 16 47 16 9 0 29 6 45 14 27 14 81 38 113 51 8 3 24 11 35 18 11 7 46
27 77 45 98 57 89 102 -21 103 -36 0 -88 4 -116 10 -27 5 -76 13 -108 17 -61
9 -101 39 -113 88 -3 12 0 100 8 195 19 257 17 1096 -3 1204 -9 44 -21 93 -27
108 -7 16 -12 35 -12 43 0 8 -4 22 -9 32 -4 9 -17 35 -27 57 -42 90 -105 164
-183 218 -56 39 -111 67 -129 67 -7 0 -23 6 -35 12 -45 25 -157 41 -322 44
-97 2 -177 0 -186 -6z m429 -1173 c7 -9 10 -146 9 -425 l-2 -413 -45 -24
c-138 -72 -194 -85 -353 -85 -124 0 -144 2 -190 24 -62 28 -127 90 -156 149
-31 61 -56 245 -42 302 6 24 11 61 11 82 1 21 9 56 20 78 11 22 19 46 20 52 0
7 16 35 36 63 37 52 114 100 159 100 13 0 26 4 30 9 3 6 27 13 53 16 26 4 56
11 67 16 12 6 45 14 75 19 30 5 73 13 95 19 22 6 60 11 85 11 25 0 52 5 60 10
21 14 56 12 68 -3z"/>
<path d="M18580 4189 c-74 -3 -190 -7 -258 -8 -68 0 -142 -6 -165 -11 -23 -6
-96 -13 -162 -18 l-120 -7 0 -33 c0 -37 9 -44 180 -132 44 -22 107 -55 139
-73 l60 -32 1 -855 c1 -470 0 -865 -3 -877 -2 -14 -14 -24 -32 -28 -16 -3 -34
-13 -41 -21 -6 -8 -19 -14 -29 -14 -10 0 -23 -7 -30 -15 -7 -8 -20 -15 -30
-15 -10 0 -23 -7 -30 -15 -7 -8 -20 -15 -30 -15 -10 0 -23 -7 -30 -15 -7 -8
-20 -15 -30 -15 -10 0 -23 -7 -30 -15 -7 -8 -19 -15 -26 -15 -8 0 -14 -4 -14
-9 0 -5 -3 -16 -6 -25 -6 -14 51 -16 600 -16 l606 0 0 23 c0 21 -23 35 -175
111 -137 68 -176 92 -181 110 -3 13 -3 66 1 117 3 52 8 472 10 934 4 656 2
856 -8 914 -7 41 -17 75 -22 76 -6 1 -71 -2 -145 -6z"/>
<path d="M24527 4183 c-22 -21 1 -68 43 -87 8 -3 27 -14 42 -24 14 -9 73 -45
130 -80 106 -64 124 -85 143 -165 4 -15 11 -30 16 -33 5 -3 9 -13 9 -22 1 -9
9 -35 20 -57 11 -22 19 -48 20 -57 0 -10 5 -18 10 -18 6 0 10 -6 10 -14 0 -7
9 -35 21 -62 11 -27 27 -65 35 -84 9 -19 19 -44 24 -55 5 -11 18 -42 30 -70
32 -76 36 -85 70 -160 17 -38 41 -90 51 -115 11 -25 27 -57 35 -72 8 -14 14
-33 14 -42 0 -9 5 -16 10 -16 6 0 10 -7 10 -15 0 -8 13 -41 29 -72 16 -32 46
-94 66 -138 20 -44 57 -120 81 -168 24 -49 44 -95 44 -103 0 -8 4 -14 9 -14 5
0 12 -13 16 -30 4 -17 10 -30 15 -30 5 0 11 -13 15 -30 4 -17 10 -30 15 -30 5
0 11 -13 15 -30 4 -16 10 -30 15 -30 5 0 11 -13 15 -30 4 -17 11 -30 16 -30 5
0 9 -9 9 -19 0 -11 7 -26 15 -34 7 -8 17 -26 21 -41 3 -14 10 -26 14 -26 5 0
11 -13 15 -30 4 -17 10 -30 15 -30 4 0 11 -12 15 -27 3 -15 10 -30 13 -33 12
-9 72 -131 72 -145 0 -17 -179 -376 -197 -393 -7 -7 -13 -17 -13 -22 0 -17
-105 -164 -159 -222 -47 -51 -131 -118 -148 -118 -4 0 -14 -7 -24 -16 -16 -14
-56 -16 -331 -15 l-314 2 -23 -25 c-22 -24 -24 -31 -18 -101 4 -41 11 -83 17
-92 5 -10 19 -40 30 -66 12 -26 39 -66 60 -87 36 -36 45 -40 91 -40 61 0 211
27 256 47 17 7 35 13 40 13 26 0 194 98 258 149 61 50 204 203 241 258 22 32
43 61 47 64 4 3 17 23 29 45 11 21 23 41 27 44 12 10 111 211 111 225 0 8 5
15 10 15 6 0 10 7 10 16 0 9 6 28 14 42 8 15 24 50 36 77 12 28 28 62 36 77 8
14 14 33 14 42 0 9 5 16 10 16 6 0 10 7 10 16 0 9 7 28 15 42 8 15 24 50 35
77 12 28 27 64 35 80 7 17 27 61 44 98 17 37 31 73 31 80 0 7 7 21 15 31 8 11
15 28 15 38 0 10 5 18 10 18 6 0 10 7 10 16 0 9 7 28 15 42 8 15 24 50 35 77
11 28 27 62 35 77 8 14 15 33 15 42 0 9 5 16 10 16 6 0 10 7 10 15 0 14 27 80
56 137 8 14 14 33 14 42 0 9 5 16 10 16 6 0 10 8 10 18 0 10 6 26 14 37 7 11
17 31 21 45 4 14 21 54 37 90 16 36 36 81 45 100 22 53 44 102 60 132 7 14 13
33 13 42 0 9 5 16 10 16 6 0 10 7 10 15 0 14 27 80 56 137 8 14 14 33 14 42 0
9 5 16 10 16 6 0 10 7 10 16 0 9 7 28 14 42 24 43 56 123 56 138 0 8 5 14 10
14 6 0 10 6 10 13 1 6 9 30 20 52 11 22 19 43 20 47 0 4 13 35 29 70 15 35 36
82 46 105 10 22 27 46 39 52 12 6 35 20 51 31 17 11 37 23 46 27 8 5 57 33
108 63 89 53 114 81 96 109 -8 13 -833 15 -853 2 -8 -4 -12 -18 -10 -31 3 -23
24 -36 181 -117 37 -19 69 -39 72 -43 3 -5 18 -11 34 -15 19 -4 33 -16 40 -34
12 -27 8 -45 -18 -106 -30 -67 -51 -126 -51 -139 0 -9 -4 -16 -10 -16 -5 0
-10 -8 -10 -17 -1 -10 -9 -36 -20 -58 -11 -22 -19 -48 -20 -57 0 -10 -4 -18
-9 -18 -5 0 -11 -15 -15 -32 -5 -29 -17 -58 -47 -120 -5 -10 -9 -23 -9 -30 0
-7 -6 -24 -13 -38 -7 -14 -24 -54 -37 -90 -12 -36 -27 -69 -32 -75 -4 -5 -8
-16 -8 -25 -1 -8 -9 -33 -20 -55 -11 -22 -19 -48 -20 -57 0 -10 -4 -18 -10
-18 -5 0 -10 -7 -10 -16 0 -15 -32 -100 -51 -136 -5 -10 -9 -23 -9 -30 0 -7
-6 -24 -13 -38 -7 -14 -24 -54 -37 -90 -12 -36 -27 -69 -32 -75 -4 -5 -8 -16
-8 -25 -1 -8 -9 -33 -20 -55 -11 -22 -19 -46 -20 -53 0 -26 -33 -62 -56 -62
-18 0 -25 7 -30 28 -3 15 -12 41 -20 59 -8 17 -14 36 -14 42 0 6 -4 19 -10 29
-9 17 -30 65 -64 152 -22 54 -28 70 -56 135 -12 28 -26 61 -32 75 -5 14 -16
39 -23 55 -39 88 -55 129 -55 141 0 8 -4 14 -10 14 -5 0 -10 7 -10 16 0 9 -6
28 -14 42 -7 15 -23 50 -35 77 -13 28 -29 62 -37 77 -8 14 -14 33 -14 42 0 9
-4 16 -10 16 -5 0 -10 7 -10 15 0 8 -14 43 -31 77 -17 35 -37 77 -44 93 -8 17
-30 64 -49 106 -20 42 -36 81 -36 88 0 6 -4 11 -9 11 -5 0 -12 14 -16 30 -4
17 -11 30 -15 30 -10 0 -30 63 -30 92 0 11 10 20 26 24 14 4 45 17 67 30 23
13 79 42 123 64 90 45 118 69 112 97 -3 17 -31 18 -589 21 -322 1 -589 -1
-592 -5z"/>
<path d="M4997 3014 c-4 -4 -7 -510 -7 -1124 l0 -1116 113 -112 c63 -62 118
-112 123 -112 5 0 60 51 122 113 l112 113 0 1119 0 1120 -228 3 c-126 1 -231
-1 -235 -4z"/>
</g>
</svg>
